<?xml version="1.0" encoding="utf-8"?>
<!-- Generator: Adobe Illustrator 14.0.0, SVG Export Plug-In . SVG Version: 6.00 Build 43363)  -->
<!DOCTYPE svg PUBLIC "-//W3C//DTD SVG 1.1//EN" "http://www.w3.org/Graphics/SVG/1.1/DTD/svg11.dtd">
<svg version="1.1" id="Layer_1" xmlns="http://www.w3.org/2000/svg" xmlns:xlink="http://www.w3.org/1999/xlink" x="0px" y="0px"
	 width="479px" height="479px" viewBox="0 0 479 479" enable-background="new 0 0 479 479" xml:space="preserve">
<g>
	<path fill="#FFFFFF" d="M474.901,239.002c0-65-23-120.4-68.8-166.2C360.301,26.901,304.901,4,239.901,4
		C175.002,4,119.601,26.901,73.7,72.802c-45.8,45.8-68.7,101.2-68.7,166.2c0,64.8,22.9,120.199,68.7,166.1
		c45.901,45.9,101.302,68.8,166.201,68.8c65,0,120.399-22.899,166.2-68.8C451.901,359.201,474.901,303.802,474.901,239.002z
		 M365.102,343.602L365.102,343.602l28.399,26.1c0,0,0,0,0.101,0l0,0l0,0l25.8-36.1c0-0.1,0-0.1,0-0.1
		c8.399-1.801,16.7-3.801,24.899-5.9c-0.1,0.1-0.1,0.1-0.1,0.2c-10.8,24.8-26.6,47.5-47.3,68.1c-43.5,43.5-96,65.3-157.601,65.3
		c-61.5,0-113.9-21.8-157.301-65.3c-16.6-16.5-30-34.3-40.1-53.399c15.8,2.199,31.6,4.199,47.3,5.8l33.901,34.2l34.401-28.801
		C229.102,357.102,298.301,353.701,365.102,343.602z M449.301,315.602L449.301,315.602c-129.399,29.2-267.199,34.3-413.401,15.1
		c0-0.1,0-0.1-0.1,0c-12.9-28.1-19.2-58.899-19.2-92.399c0-61.5,21.8-114,65.3-157.4C125.301,37.301,177.801,15.5,239.301,15.5
		c61.7,0,114.2,21.801,157.601,65.401c43.6,43.4,65.399,95.9,65.399,157.4C462.301,265.901,457.901,291.701,449.301,315.602z"/>
	<path d="M365.102,343.602L365.102,343.602c-66.801,10.1-136,13.5-207.6,10.1l-34.401,28.801l-33.901-34.2
		c-15.7-1.601-31.5-3.601-47.3-5.8c10.1,19.1,23.5,36.899,40.1,53.399c43.401,43.5,95.801,65.3,157.301,65.3
		c61.601,0,114.101-21.8,157.601-65.3c20.7-20.6,36.5-43.3,47.3-68.1c0-0.101,0-0.101,0.1-0.2c-8.199,2.1-16.5,4.1-24.899,5.9
		c0,0,0,0,0,0.1l-25.8,36.1l0,0l0,0c-0.101,0-0.101,0-0.101,0L365.102,343.602z"/>
	<path d="M449.301,315.602L449.301,315.602c8.601-23.9,13-49.7,13-77.3c0-61.5-21.8-114-65.399-157.4
		c-43.4-43.601-95.9-65.401-157.601-65.401c-61.5,0-114,21.801-157.401,65.401c-43.5,43.4-65.3,95.9-65.3,157.4
		c0,33.5,6.3,64.3,19.2,92.399c0.1-0.1,0.1-0.1,0.1,0C182.102,349.901,319.901,344.802,449.301,315.602z"/>
	<path fill="none" stroke="#000000" stroke-width="5" stroke-linecap="round" stroke-linejoin="round" d="M365.102,343.602
		c-66.801,10.1-136,13.5-207.6,10.1l-34.401,28.801l-33.901-34.2c-15.7-1.601-31.5-3.601-47.3-5.8
		c10.1,19.1,23.5,36.899,40.1,53.399c43.401,43.5,95.801,65.3,157.301,65.3c61.601,0,114.101-21.8,157.601-65.3
		c20.7-20.6,36.5-43.3,47.3-68.1c0-0.101,0-0.101,0.1-0.2c-8.199,2.1-16.5,4.1-24.899,5.9c0,0,0,0,0,0.1l-25.8,36.1l0,0l0,0
		c-0.101,0-0.101,0-0.101,0L365.102,343.602L365.102,343.602"/>
	<path fill="none" stroke="#000000" stroke-width="5" stroke-linecap="round" stroke-linejoin="round" d="M449.301,315.602
		c8.601-23.9,13-49.7,13-77.3c0-61.5-21.8-114-65.399-157.4c-43.4-43.601-95.9-65.401-157.601-65.401
		c-61.5,0-114,21.801-157.401,65.401c-43.5,43.4-65.3,95.9-65.3,157.4c0,33.5,6.3,64.3,19.2,92.399c0.1-0.1,0.1-0.1,0.1,0
		C182.102,349.901,319.901,344.802,449.301,315.602L449.301,315.602"/>
	<path fill="none" stroke="#000000" stroke-width="5" stroke-linecap="round" stroke-linejoin="round" d="M474.901,239.002
		c0,64.8-23,120.199-68.8,166.1c-45.801,45.9-101.2,68.8-166.2,68.8c-64.899,0-120.301-22.899-166.201-68.8
		c-45.8-45.9-68.7-101.3-68.7-166.1c0-65,22.9-120.4,68.7-166.2C119.601,26.901,175.002,4,239.901,4
		c65,0,120.399,22.901,166.2,68.802C451.901,118.602,474.901,174.002,474.901,239.002"/>
</g>
</svg>
